<svg width="2000" height="1333" viewBox="0 0 2000 1333" fill="none" xmlns="http://www.w3.org/2000/svg">
<path d="M434.812 456.883L514.736 536.603L434.812 616.527L361.079 542.78L287.346 616.527L207.422 536.603L287.346 456.883L361.079 530.63L434.812 456.883Z" fill="#66AB9A"/>
<path d="M1554.54 488.976L1586.23 473.785C1591.78 471.151 1594.41 464.675 1592.43 458.864L1580.69 425.724C1577.37 416.221 1586.48 406.975 1596 410.41L1629.14 422.154C1634.95 424.272 1641.29 421.502 1644.06 415.949L1659.25 384.262C1663.61 375.152 1676.55 375.152 1681.03 384.262L1696.22 415.949C1698.86 421.502 1705.33 424.136 1711.14 422.154L1744.28 410.41C1753.8 406.975 1763.03 416.221 1759.61 425.724L1747.85 458.864C1745.87 464.675 1748.52 471.015 1754.06 473.785L1785.74 488.976C1794.85 493.335 1794.85 506.273 1785.74 510.753L1754.06 525.945C1748.52 528.592 1745.87 535.055 1747.85 540.865L1759.61 574.005C1762.91 583.522 1753.8 592.754 1744.28 589.333L1711.14 577.576C1705.33 575.594 1698.99 578.241 1696.22 583.78L1681.03 615.467C1676.67 624.577 1663.73 624.577 1659.25 615.467L1644.06 583.78C1641.43 578.241 1634.95 575.594 1629.14 577.576L1596 589.333C1586.48 592.632 1577.25 583.522 1580.69 574.005L1592.43 540.865C1594.41 535.055 1591.78 528.715 1586.23 525.945L1554.54 510.753C1545.43 506.409 1545.43 493.335 1554.54 488.976Z" fill="#F4D8AD"/>
<path d="M409.066 382.39C456.76 341.417 462.204 269.584 421.23 221.891L248.512 370.28C289.431 417.906 361.372 423.364 409.066 382.39Z" fill="white"/>
<path d="M1503.92 259.534L1576.85 186.602L1649.77 259.534L1576.85 332.452L1503.92 259.534Z" fill="white"/>
<path d="M1251.65 118.628L1206.06 73.0391L1146.31 132.802L1086.55 73.0391L1040.96 118.628L1100.72 178.392L1040.96 238.318L1086.55 283.907L1146.31 223.981L1206.06 283.907L1251.65 238.318L1191.89 178.392L1251.65 118.628Z" fill="#E6C4D9"/>
<path d="M986.152 241.492H852.356L946.902 146.064L888.035 88.0794L793.489 182.625V48.8438H711.434V182.625L616.888 88.0794L558.021 146.064L653.463 241.492H518.785V323.548H653.463L558.021 418.094L616.888 476.961L711.434 381.519V516.21H793.489V381.519L888.035 476.961L946.902 418.094L852.356 323.548H986.152V241.492Z" fill="#F4D8AD"/>
<path d="M1456.89 326.648H1220.62C1209.02 326.648 1199.7 336.098 1199.7 347.583V547.129C1199.7 558.736 1209.15 568.05 1220.62 568.05H1456.89C1468.5 568.05 1477.95 558.601 1477.95 547.129V347.583C1477.83 335.962 1468.5 326.648 1456.89 326.648Z" fill="#66AB9A"/>
<path d="M1313.1 440.728L1295.29 399.551C1291.54 391.202 1277.53 391.025 1275.43 391.052C1275.28 391.052 1275.17 390.93 1275.17 390.781V386.64C1275.17 386.531 1275.24 386.436 1275.33 386.396C1281.78 383.857 1285.43 375.548 1279.83 367.497C1279.81 367.47 1279.79 367.443 1279.76 367.416C1270.2 359.949 1259.64 366.561 1259.64 375.657C1259.64 380.449 1262.67 384.59 1266.9 386.396C1267 386.436 1267.07 386.531 1267.07 386.64V390.781C1267.07 390.93 1266.96 391.052 1266.81 391.052C1264.72 391.039 1250.69 391.31 1246.95 399.551L1229.13 440.728C1227.91 443.566 1229.27 446.811 1232.11 447.883C1234.79 448.969 1237.9 447.761 1239.13 445.059L1253.15 413.44C1253.27 413.196 1253.65 413.25 1253.68 413.535L1256.41 439.887C1256.41 439.914 1256.41 439.941 1256.39 439.968C1256.1 441.448 1247.14 485.313 1248.03 520.571C1248.03 520.707 1247.95 520.802 1247.81 520.829C1246.7 521.06 1241.56 522.254 1238.31 525.255C1236.29 527.142 1237.63 530.522 1240.47 530.522H1253.3C1256 530.522 1258.3 528.486 1258.84 525.784L1270.72 453.558C1270.77 453.259 1271.19 453.259 1271.25 453.558L1283.14 525.784C1283.53 528.486 1285.83 530.522 1288.67 530.522H1301.5C1304.2 530.522 1305.68 527.278 1303.79 525.391C1300.67 522.268 1295.4 521.06 1294.29 520.829C1294.15 520.802 1294.07 520.707 1294.07 520.571C1295.1 485.327 1286.02 441.489 1285.71 439.968C1285.69 439.941 1285.69 439.914 1285.69 439.887L1288.56 413.521C1288.58 413.236 1288.96 413.182 1289.07 413.44L1303.11 445.059C1304.33 447.761 1307.44 448.969 1310.13 447.883C1312.97 446.811 1314.33 443.566 1313.1 440.728Z" fill="#8B3C6C"/>
<path d="M1334.18 528.217L1328.37 524.85L1361.98 467.327L1388.17 482.587L1434.07 398.074L1440.02 401.319L1390.74 491.9L1364.41 476.518L1334.18 528.217Z" fill="black"/>
<path d="M1332.95 514.855C1330.63 514.855 1328.39 515.78 1326.75 517.426C1325.1 519.072 1324.18 521.305 1324.18 523.633C1324.18 525.96 1325.1 528.193 1326.75 529.839C1328.39 531.485 1330.63 532.41 1332.95 532.41C1335.28 532.41 1337.51 531.485 1339.16 529.839C1340.81 528.193 1341.73 525.96 1341.73 523.633C1341.73 521.305 1340.81 519.072 1339.16 517.426C1337.51 515.78 1335.28 514.855 1332.95 514.855Z" fill="white"/>
<path d="M1362.66 464.5C1360.33 464.5 1358.1 465.424 1356.46 467.069C1354.81 468.714 1353.89 470.944 1353.89 473.27C1353.89 475.596 1354.81 477.827 1356.46 479.472C1358.1 481.117 1360.33 482.041 1362.66 482.041C1364.99 482.041 1367.22 481.117 1368.86 479.472C1370.51 477.827 1371.43 475.596 1371.43 473.27C1371.43 470.944 1370.51 468.714 1368.86 467.069C1367.22 465.424 1364.99 464.5 1362.66 464.5Z" fill="white"/>
<path d="M1389.39 478.539C1387.06 478.539 1384.83 479.464 1383.18 481.11C1381.54 482.756 1380.61 484.988 1380.61 487.316C1380.61 489.644 1381.54 491.877 1383.18 493.523C1384.83 495.169 1387.06 496.093 1389.39 496.093C1391.72 496.093 1393.95 495.169 1395.6 493.523C1397.24 491.877 1398.17 489.644 1398.17 487.316C1398.17 484.988 1397.24 482.756 1395.6 481.11C1393.95 479.464 1391.72 478.539 1389.39 478.539Z" fill="white"/>
<path d="M1437.05 392.535C1434.72 392.535 1432.49 393.46 1430.84 395.106C1429.19 396.752 1428.27 398.984 1428.27 401.312C1428.27 403.64 1429.19 405.873 1430.84 407.519C1432.49 409.165 1434.72 410.089 1437.05 410.089C1439.37 410.089 1441.61 409.165 1443.25 407.519C1444.9 405.873 1445.82 403.64 1445.82 401.312C1445.82 398.984 1444.9 396.752 1443.25 395.106C1441.61 393.46 1439.37 392.535 1437.05 392.535Z" fill="white"/>
<path d="M1401.81 380.52H1343.76C1340.92 380.52 1338.77 378.225 1338.77 375.523C1338.77 372.686 1341.06 370.527 1343.76 370.527H1401.81C1404.65 370.527 1406.81 372.822 1406.81 375.523C1406.95 378.361 1404.65 380.52 1401.81 380.52Z" fill="#8B3C6C"/>
<path d="M1366.43 403.07H1343.76C1340.92 403.07 1338.77 400.776 1338.77 398.074C1338.77 395.237 1341.06 393.078 1343.76 393.078H1366.43C1369.27 393.078 1371.43 395.373 1371.43 398.074C1371.43 400.776 1369.14 403.07 1366.43 403.07Z" fill="#8B3C6C"/>
<path d="M1376.97 425.484H1343.62C1340.79 425.484 1338.63 423.19 1338.63 420.488C1338.63 417.651 1340.92 415.492 1343.62 415.492H1376.97C1379.81 415.492 1381.96 417.787 1381.96 420.488C1382.1 423.326 1379.81 425.484 1376.97 425.484Z" fill="#8B3C6C"/>
<path d="M634.13 850.938C634.13 842.303 632.433 833.669 629.052 825.808C625.957 818.395 621.49 811.77 615.937 806.068L598.831 788.487V752.727H564.605V788.65L547.485 806.217C541.946 811.933 537.466 818.558 534.384 825.957C530.99 833.818 529.293 842.453 529.293 851.087V1026.22H634.13V850.938Z" fill="#E6C4D9"/>
<path d="M451.271 894.355C451.244 894.341 451.23 894.301 451.23 894.246C451.23 894.206 451.244 894.165 451.271 894.124C500.418 850.843 472.545 804.045 442.501 783.558C411.981 762.746 414.9 718.5 414.9 718.5V670.25H359.861V718.5C359.861 718.5 362.02 761.673 332.274 783.558C298.537 808.362 274.344 851.006 323.504 894.124C323.545 894.165 323.558 894.206 323.558 894.246C323.558 894.287 323.531 894.341 323.504 894.355C300.139 913.633 281.92 940.745 307.755 987.828L327.794 1026.22H447.13L467.169 987.828C490.398 941.832 474.636 913.633 451.271 894.355Z" fill="#E6C4D9"/>
<path d="M1532.59 796.417C1525.58 796.417 1519.92 790.77 1519.92 783.764V733.043H1502.55V783.764C1502.55 790.77 1496.88 796.417 1489.88 796.417H1474.61V811.704H1547.78V796.417H1532.59Z" fill="white"/>
<path d="M1511.23 756.418C1495.78 756.418 1483.29 743.928 1483.29 728.492V604.852H1539.08V728.492C1539.17 743.928 1526.68 756.418 1511.23 756.418Z" fill="#E6C4D9"/>
<path d="M1534.27 649.49C1535.62 648.146 1534.86 645.784 1533.01 645.526L1520.68 643.761C1519.92 643.666 1519.26 643.164 1518.92 642.485L1513.43 631.352C1512.58 629.669 1510.13 629.669 1509.21 631.352L1503.73 642.485C1503.39 643.164 1502.71 643.666 1501.95 643.761L1489.63 645.526C1487.69 645.784 1486.93 648.146 1488.36 649.49L1497.3 658.193C1497.9 658.695 1498.07 659.456 1497.98 660.297L1495.88 672.625C1495.54 674.566 1497.56 675.992 1499.25 675.068L1510.31 669.244C1510.98 668.905 1511.83 668.905 1512.5 669.244L1523.56 675.068C1525.24 675.992 1527.27 674.471 1526.93 672.625L1524.82 660.297C1524.65 659.537 1524.99 658.777 1525.5 658.193L1534.27 649.49Z" fill="white"/>
<path d="M1528.95 699.967C1530.05 698.948 1529.47 697.088 1527.95 696.925L1518.41 695.568C1517.82 695.486 1517.32 695.147 1517.06 694.563L1512.84 685.956C1512.16 684.598 1510.31 684.598 1509.64 685.956L1505.41 694.563C1505.16 695.065 1504.65 695.486 1504.07 695.568L1494.52 696.925C1493 697.17 1492.5 698.948 1493.52 699.967L1500.35 706.633C1500.77 707.053 1500.95 707.637 1500.85 708.235L1499.25 717.684C1499.01 719.123 1500.53 720.304 1501.87 719.544L1510.4 715.063C1510.9 714.819 1511.58 714.819 1512.08 715.063L1520.61 719.544C1521.95 720.209 1523.47 719.123 1523.23 717.684L1521.62 708.235C1521.53 707.637 1521.7 707.053 1522.13 706.633L1528.95 699.967Z" fill="white"/>
<path d="M1385.91 793.513C1376.04 793.513 1366.33 790.485 1358.13 784.906C1344.67 775.755 1336.55 760.468 1336.55 744.136V696.686C1336.55 696.591 1336.48 696.523 1336.38 696.523H1325.73H1315.06C1314.96 696.523 1314.89 696.591 1314.89 696.686V744.136C1314.89 760.468 1306.85 775.755 1293.39 784.906C1285.19 790.485 1275.48 793.513 1265.61 793.513H1260.03C1259.95 793.513 1259.87 793.581 1259.87 793.662V811.977C1259.87 812.072 1259.95 812.14 1260.03 812.14H1325.79H1391.57C1391.65 812.14 1391.73 812.072 1391.73 811.977V793.662C1391.73 793.581 1391.65 793.513 1391.57 793.513H1385.91Z" fill="#E6C4D9"/>
<path d="M1240.68 675.251C1240.71 685.976 1249.37 694.61 1260.11 694.61C1270.86 694.61 1279.54 685.935 1279.54 675.183C1279.46 664.362 1270.7 655.687 1260.03 655.687C1256.88 655.687 1253.86 656.42 1251.16 657.778C1250.73 658.009 1250.2 658.036 1249.76 657.818L1233.68 650.501C1226.43 647.243 1223.17 638.567 1226.26 631.317C1228.98 625.032 1235.82 621.366 1242.6 622.642L1272.15 628.276C1272.67 628.371 1273.17 628.032 1273.26 627.516L1276.48 610.749C1276.58 610.233 1276.25 609.745 1275.74 609.636L1246.18 604.002C1230.81 601.056 1215.04 609.419 1208.91 623.837C1201.74 640.549 1209.31 660.303 1225.87 667.865L1240.14 674.382C1240.14 674.382 1240.71 674.572 1240.68 675.251Z" fill="white"/>
<path d="M1412.98 674.735C1413.22 685.691 1404.45 694.61 1393.55 694.61C1382.81 694.61 1374.12 685.935 1374.12 675.183C1374.21 664.362 1382.96 655.687 1393.63 655.687C1397.03 655.687 1400.27 656.542 1403.12 658.104C1403.16 658.131 1403.22 658.144 1403.26 658.117L1420 650.501C1427.24 647.243 1430.51 638.567 1427.4 631.317C1424.7 625.032 1417.84 621.366 1411.08 622.642L1380.74 628.412C1380.64 628.439 1380.56 628.371 1380.55 628.29L1377.02 609.975C1377 609.894 1377.06 609.799 1377.15 609.785L1407.5 604.002C1422.86 601.056 1438.63 609.419 1444.76 623.837C1451.92 640.549 1444.36 660.303 1427.79 667.865L1413.06 674.585C1413.06 674.585 1412.97 674.653 1412.98 674.735Z" fill="white"/>
<path d="M1267.57 599.711C1265.55 599.711 1263.92 601.34 1263.92 603.349V661.497C1263.92 695.574 1291.56 723.283 1325.72 723.283C1359.8 723.283 1387.51 695.655 1387.51 661.497V603.349C1387.51 601.34 1385.86 599.711 1383.86 599.711H1267.57Z" fill="#E6C4D9"/>
<path d="M1358.05 644.691C1359.95 642.859 1358.92 639.682 1356.3 639.275L1339.57 636.817C1338.54 636.654 1337.65 636.016 1337.18 635.066L1329.7 619.847C1328.5 617.457 1325.16 617.457 1324.04 619.847L1316.56 635.066C1316.08 636.016 1315.2 636.654 1314.17 636.817L1297.46 639.275C1294.82 639.682 1293.79 642.859 1295.7 644.691L1307.8 656.476C1308.52 657.195 1308.91 658.227 1308.68 659.259L1305.8 675.985C1305.33 678.537 1308.11 680.52 1310.43 679.325L1325.4 671.451C1326.36 670.975 1327.39 670.975 1328.34 671.451L1343.32 679.325C1345.62 680.52 1348.33 678.619 1347.93 675.985L1345.07 659.259C1344.9 658.227 1345.22 657.195 1345.94 656.476L1358.05 644.691Z" fill="white"/>
<path d="M1592.49 855.858C1592.73 855.858 1592.94 855.709 1592.94 855.519V812.441C1592.94 812.251 1592.73 812.102 1592.49 812.102H765.307C765.063 812.102 764.859 812.251 764.859 812.441V855.519C764.859 855.709 765.063 855.858 765.307 855.858H1155.38C1155.63 855.858 1155.83 856.007 1155.83 856.198V997.134C1155.83 997.31 1155.63 997.473 1155.38 997.473H1039.17C1038.93 997.473 1038.72 997.623 1038.72 997.813V1025.62C1038.72 1025.81 1038.93 1025.96 1039.17 1025.96H1318.86C1319.1 1025.96 1319.3 1025.81 1319.3 1025.62V997.813C1319.3 997.623 1319.1 997.473 1318.86 997.473H1202.41C1202.17 997.473 1201.96 997.31 1201.96 997.134V856.198C1201.96 856.007 1202.17 855.858 1202.41 855.858H1592.49Z" fill="#E6C4D9"/>
<path d="M553.277 1072.83H1486.82V1283.21H553.277V1072.83Z" fill="#66AB9A"/>
<path d="M1083.99 1038.44C1083.99 1068.91 1108.63 1093.55 1139.09 1093.55H1390.27V983.336H1139.09C1108.63 983.336 1083.99 1007.96 1083.99 1038.44Z" fill="#F4D8AD"/>
<path d="M1390.27 983.336C1375.66 983.336 1361.64 989.142 1351.31 999.476C1340.97 1009.81 1335.17 1023.83 1335.17 1038.44C1335.17 1053.06 1340.97 1067.07 1351.31 1077.41C1361.64 1087.74 1375.66 1093.55 1390.27 1093.55C1404.89 1093.55 1418.91 1087.74 1429.24 1077.41C1439.58 1067.07 1445.38 1053.06 1445.38 1038.44C1445.38 1023.83 1439.58 1009.81 1429.24 999.476C1418.91 989.142 1404.89 983.336 1390.27 983.336Z" fill="#8B3C6C"/>
<path d="M718.221 1052.94H623.906V975.907C623.906 949.813 645.14 928.742 671.057 928.742C697.164 928.742 718.221 949.989 718.221 975.907V1041.68V1052.94ZM645.14 1031.52H696.798V975.907C696.798 961.692 685.285 950.166 671.057 950.166C656.829 950.166 645.33 961.692 645.33 975.907L645.14 1031.52Z" fill="#8B3C6C"/>
<path d="M671.056 989.941C630.747 989.941 598.164 1011.45 598.164 1051.59V1057.54C598.164 1077.7 614.551 1094.09 634.698 1094.09H707.78C727.941 1094.09 744.314 1077.7 744.314 1057.54V1051.59C743.961 1011.45 711.377 989.941 671.056 989.941Z" fill="#F4D8AD"/>
<path d="M990.98 378.805C996.426 378.805 1001.82 379.877 1006.85 381.962C1011.88 384.046 1016.46 387.101 1020.31 390.953C1024.16 394.804 1027.21 399.376 1029.3 404.408C1031.38 409.44 1032.46 414.834 1032.46 420.28C1032.46 425.727 1031.38 431.12 1029.3 436.153C1027.21 441.185 1024.16 445.757 1020.31 449.608C1016.46 453.46 1011.88 456.515 1006.85 458.599C1001.82 460.683 996.426 461.756 990.98 461.756C985.533 461.756 980.14 460.683 975.108 458.599C970.076 456.515 965.503 453.46 961.652 449.608C957.801 445.757 954.745 441.185 952.661 436.153C950.577 431.12 949.504 425.727 949.504 420.28C949.504 414.834 950.577 409.44 952.661 404.408C954.745 399.376 957.801 394.804 961.652 390.953C965.503 387.101 970.076 384.046 975.108 381.962C980.14 379.877 985.533 378.805 990.98 378.805Z" fill="black"/>
<path d="M982.864 723.229L1009.99 914.696C1012.76 933.187 1014.66 951.855 1015.35 970.685L1019.33 1071.79L984.697 1114.53L958.847 1076.11L949.344 959.118C948.814 951.855 947.606 944.429 946.058 937.342L925.49 845.403C898.378 760.741 917.684 683.219 930.608 650.175C935.387 637.956 982.864 723.229 982.864 723.229Z" fill="#8B3C6C"/>
<path d="M1003.24 733.409L956.075 689.87L930.605 650.173L937.923 605.194L982.182 557.84L1047.54 589.364L1050.61 637.682C1050.61 637.682 1064.6 646.154 1076.86 664.469C1066.64 704.532 1003.24 733.409 1003.24 733.409Z" fill="#8B3C6C"/>
<path d="M970.507 422.55L980.065 446.987C980.092 447.042 980.133 447.069 980.201 447.096L1001.87 450.87C1012.58 452.771 1038.92 490.893 1046.05 499.066C1046.06 499.093 1046.07 499.093 1046.09 499.107L1065.45 508.936L1111.57 528.961C1111.61 528.989 1111.62 529.002 1111.63 529.016L1141.84 563.378C1145.3 567.355 1147.9 572.365 1148.77 577.551C1150.83 590.856 1143.23 603.116 1131.31 607.786L1050.61 637.681C1050.51 637.722 1027.91 620.493 1027.88 620.398L1035.05 595.513L1091.46 570.41C1091.58 570.356 1091.6 570.179 1091.49 570.111L1082.08 563.378C1082.05 563.378 1082.05 563.378 1082.05 563.378C1082.05 563.378 1042.72 509.547 1042.67 509.561L940.517 534.243C940.477 534.256 940.395 534.215 940.368 534.175L894.656 467.257C894.602 467.175 894.602 467.08 894.67 467.012C899.137 463.632 966.475 424.641 970.263 422.441C970.345 422.401 970.453 422.441 970.507 422.55Z" fill="#D37C72"/>
<path d="M709.992 226.915C711.892 225.53 714.485 226.046 715.87 227.947L734.633 253.131C734.891 253.457 735.42 253.131 735.23 252.765L715.354 214.126C714.146 211.886 715.354 208.94 717.947 208.071C719.672 207.555 721.749 208.424 722.781 209.972L747.109 245.148C747.354 245.488 747.91 245.175 747.72 244.795C742.534 234.056 729.433 207.162 724.681 197.536C723.826 195.635 724.505 193.219 726.419 192.173C728.32 191.141 730.736 191.834 731.768 193.735L760.061 240.804C760.265 241.17 760.808 240.912 760.686 240.519L747.15 199.952C746.458 198.052 747.49 196.151 749.39 195.459C751.128 194.943 752.852 195.812 753.721 197.359L786.291 258.575C786.427 258.847 786.861 258.792 786.929 258.467L792.074 234.518C792.427 232.794 793.812 231.232 795.536 230.893C798.645 230.201 801.062 232.617 801.062 235.55L799.636 297.662C799.636 297.729 799.664 297.797 799.704 297.865L878.922 404.63C878.922 404.698 878.922 404.766 878.922 404.833L874.496 443.295C874.428 443.377 846.434 433.303 846.366 433.194C846.366 433.194 714.485 241.781 708.783 232.617C707.575 230.717 708.091 228.123 709.992 226.915Z" fill="#D37C72"/>
<path d="M843.501 436.089L877.673 401.591C877.741 401.51 877.863 401.523 877.917 401.591L925.624 455.856C925.665 455.87 925.679 455.91 925.679 455.937L931.883 495.458C933.607 506.347 942.948 514.126 953.999 514.126L975.436 513.786C986.84 513.61 996.167 504.962 997.375 493.734L1001.86 451.05C1001.87 450.968 1001.95 450.901 1002.06 450.914L1031.94 455.72C1040.75 457.105 1049.05 460.377 1056.47 465.224C1062.35 469.025 1067.54 473.695 1071.69 479.221L1084.47 495.458L1111.51 528.87C1111.57 528.938 1111.57 529.046 1111.51 529.087L1082.16 563.259C1082.11 563.326 1082 563.34 1081.93 563.286L1053.79 544.7C1053.68 544.632 1053.53 544.673 1053.5 544.822L1047.57 589.23C1047.54 589.298 1047.49 589.366 1047.4 589.38L938.074 605.182C937.979 605.182 937.911 605.142 937.884 605.074L917.384 564.589C917.37 564.589 917.37 564.589 917.37 564.589C913.216 557.842 911.491 549.899 912.36 541.944L913.392 531.816C913.392 531.775 913.392 531.734 913.351 531.707L843.487 436.306C843.433 436.238 843.46 436.143 843.501 436.089Z" fill="#66AB9A"/>
<path d="M991.85 398.518C987.533 395.232 982.686 395.056 978.369 396.956C978.708 389.177 909.768 355.48 909.768 355.48C909.768 355.48 888.86 385.036 888.684 392.978C888.684 392.978 888.86 408.184 892.485 426.675C897.318 443.958 908.03 459.856 930.159 461.593C953.144 460.901 965.241 446.374 971.459 430.313C974.228 430.829 977.161 431.006 980.093 430.476C985.795 429.444 990.805 425.82 994.09 420.457C998.584 413.547 998.245 403.351 991.85 398.518Z" fill="#D37C72"/>
<path d="M975.558 399.62C981.016 394.489 987.356 396.267 987.356 396.267C987.356 396.267 990.981 334.915 938.278 340.102C938.278 340.102 896.978 329.906 887.298 389.18C886.783 392.642 886.783 392.805 890.231 393.497C896.938 394.882 908.776 394.543 920.805 381.781C920.914 381.659 921.076 381.645 921.226 381.74C923.398 383.261 941.251 395.33 962.511 398.086C962.919 398.141 963.272 398.399 963.421 398.779L968.349 410.78C968.689 411.473 969.558 411.473 969.734 410.78C969.924 409.3 970.087 404.766 975.558 399.62Z" fill="black"/>
<path d="M913.217 685.55C910.977 686.418 908.383 685.21 907.338 682.957C906.483 680.716 907.515 678.123 909.768 677.078L943.791 661.913C943.926 661.845 943.859 661.655 943.723 661.682L895.242 674.145C892.486 674.838 889.716 672.937 889.54 669.991C889.377 667.928 890.761 666.19 892.662 665.334L938.428 647.047C938.577 646.993 938.523 646.803 938.387 646.843C929.06 649.016 892.363 657.569 879.873 660.488C877.619 661.004 875.203 659.632 874.687 657.379V657.202C873.995 654.962 875.203 652.722 877.443 652.03L936.106 632.819C936.215 632.778 936.188 632.588 936.052 632.602L887.639 637.34C885.575 637.503 883.498 635.955 883.498 633.701C883.498 631.977 884.883 630.416 886.607 629.9L959.58 609.943C959.689 609.916 959.702 609.766 959.607 609.726L934.993 598.281C933.269 597.412 931.884 595.688 931.884 593.61C931.884 590.325 934.993 588.085 938.102 588.954L1007.75 607.268L1029.8 618.129L1020.36 648.391C1020.36 648.391 924.105 681.748 913.217 685.55Z" fill="#D37C72"/>
<path d="M1035.05 595.512L1007.75 607.269L1020.36 648.392L1050.61 637.856L1035.05 595.512Z" fill="white"/>
<path d="M833.03 697.472C833.03 696.78 833.207 696.087 833.207 695.571C835.284 677.773 853.083 666.029 870.705 669.994L948.117 687.629L956.249 689.869L1006.02 702.482C1006.02 702.482 1030.04 671.731 1076.86 664.645C1085.69 677.949 1093.63 696.617 1094.5 720.973C1095.35 744.134 1083.79 766.25 1063.22 777.138C1047.32 785.61 1023.98 789.235 990.462 777.491L912.547 747.162C912.194 747.039 911.923 747.433 912.167 747.705C916.104 752.09 930.441 771.491 962.467 848.686C968.848 864.027 943.841 889.659 943.841 889.659L907.225 868.399L841.502 737.047C834.931 724.951 832.161 711.13 833.03 697.472Z" fill="#8B3C6C"/>
<path d="M962.469 848.684L986.662 906.573L956.142 948.117L925.31 908.474L907.227 868.396L962.469 848.684Z" fill="#66AB9A"/>
<path d="M826.301 991.252L829.681 1006.65C829.722 1006.82 829.912 1006.95 830.102 1006.91L1002.75 968.851C1002.94 968.824 1003.05 968.634 1003.01 968.444L999.63 953.238L914.656 954.718C914.656 954.718 826.26 991.062 826.301 991.252Z" fill="white"/>
<path d="M832.339 964.821C836.846 960.653 877.616 937.681 877.793 937.681L921.685 905.546C923.762 903.985 926.695 904.338 928.256 906.401C930.849 909.51 933.266 912.633 936.375 914.697C944.317 920.059 954.173 920.575 962.808 917.29C972.148 913.841 978.706 905.546 980.606 896.043C980.783 894.997 981.475 894.305 982.507 893.965C983.892 893.612 985.277 894.481 985.453 895.866L999.627 953.24L826.297 991.254L825.116 984.778C824.465 981.112 825.184 977.46 826.202 973.89C827.302 970.034 828.266 967.957 832.339 964.821Z" fill="black"/>
<path d="M886.426 960.675C887.092 960.675 887.716 960.471 888.232 960.064C889.698 958.883 890.011 956.914 888.938 955.584L876.38 937.011C875.959 936.129 874.968 935.531 873.882 935.531C873.217 935.531 872.551 935.749 871.954 936.156C871.139 936.794 870.637 937.649 870.528 938.545C870.447 939.319 870.664 940.079 871.153 940.69L883.698 959.263C884.431 960.172 885.408 960.675 886.426 960.675Z" fill="white"/>
<path d="M898.362 952.22C899.014 952.22 899.638 952.003 900.154 951.595C900.806 951.052 901.254 950.346 901.417 949.586C901.62 948.69 901.417 947.821 900.86 947.115L888.302 928.543C887.596 927.619 886.605 927.117 885.587 927.117C884.935 927.117 884.283 927.334 883.795 927.742C883.129 928.285 882.681 928.991 882.505 929.751C882.315 930.647 882.505 931.516 883.075 932.222L895.62 950.794C896.353 951.718 897.33 952.22 898.362 952.22Z" fill="white"/>
<path d="M911.493 943.407C912.144 943.407 912.769 943.19 913.285 942.782C914.764 941.601 915.063 939.633 914.004 938.302L901.432 919.73C901.025 918.847 900.007 918.25 898.88 918.25C898.147 918.25 897.455 918.494 896.925 918.929C895.459 920.11 895.147 922.079 896.219 923.409L908.764 941.981C909.483 942.905 910.474 943.407 911.493 943.407Z" fill="white"/>
<path d="M1019.33 1071.79L958.844 1076.11L963.718 1162.61L1021.92 1144.37L1019.33 1071.79Z" fill="#66AB9A"/>
<path d="M849.109 1181.35L849.286 1196.89C849.286 1197.08 849.435 1197.25 849.625 1197.25L1026.42 1195.69C1026.61 1195.69 1026.76 1195.54 1026.76 1195.35L1026.58 1179.96C1026.58 1179.96 938.048 1162.61 937.844 1162.61C937.844 1162.61 852.558 1177.33 849.109 1181.35Z" fill="white"/>
<path d="M849.625 1169.59C850.833 1163.71 854.988 1158.7 860.69 1156.63C865.876 1154.73 903.021 1142.29 903.374 1142.29L960.395 1117.06C962.811 1116.02 965.581 1116.89 966.613 1119.3C968.513 1122.93 970.251 1126.39 972.844 1129.16C979.578 1136.07 989.082 1138.49 998.069 1137.28C1007.93 1135.9 1016.04 1129.16 1019.85 1120.17C1020.19 1119.3 1021.23 1118.61 1022.09 1118.61C1023.47 1118.61 1024.68 1119.66 1024.68 1121.03L1026.58 1179.96L849.109 1181.35C849.109 1181.35 849.286 1171.15 849.449 1169.94L849.625 1169.59Z" fill="black"/>
<path d="M914.984 1163.82C915.35 1163.82 915.69 1163.77 916.015 1163.64C916.857 1163.39 917.509 1162.79 917.875 1161.97C918.215 1161.21 918.269 1160.32 918.011 1159.53L909.512 1138.56C909.159 1137.29 907.965 1136.38 906.621 1136.38C906.159 1136.38 905.684 1136.5 905.249 1136.71C904.584 1136.91 903.919 1137.54 903.58 1138.34C903.213 1139.1 903.186 1139.97 903.444 1140.77L911.929 1161.74C912.336 1162.95 913.585 1163.82 914.984 1163.82Z" fill="white"/>
<path d="M928.284 1157.94C928.65 1157.94 928.99 1157.89 929.329 1157.78C930.972 1157.24 931.868 1155.35 931.311 1153.67L922.812 1132.68C922.405 1131.47 921.156 1130.61 919.771 1130.61C919.405 1130.61 919.052 1130.65 918.712 1130.78C917.898 1131.03 917.246 1131.65 916.88 1132.46C916.54 1133.22 916.486 1134.12 916.744 1134.89L925.229 1155.87C925.636 1157.09 926.885 1157.94 928.284 1157.94Z" fill="white"/>
<path d="M942.98 1152.06C943.346 1152.06 943.686 1152.02 944.025 1151.9C945.654 1151.36 946.564 1149.48 946.007 1147.79L937.508 1126.81C937.101 1125.58 935.839 1124.73 934.467 1124.73C934.101 1124.73 933.748 1124.79 933.408 1124.88C932.594 1125.17 931.942 1125.77 931.576 1126.58C931.209 1127.34 931.182 1128.22 931.44 1129.01L939.925 1150C940.332 1151.21 941.595 1152.06 942.98 1152.06Z" fill="white"/>
</svg>
